<?xml version="1.0" standalone="no"?>
<!DOCTYPE svg PUBLIC "-//W3C//DTD SVG 20010904//EN"
 "http://www.w3.org/TR/2001/REC-SVG-20010904/DTD/svg10.dtd">
<svg version="1.0" xmlns="http://www.w3.org/2000/svg"
 width="900.000000pt" height="900.000000pt" viewBox="0 0 900.000000 900.000000"
 preserveAspectRatio="xMidYMid meet">
<metadata>
Created by potrace 1.14, written by Peter Selinger 2001-2017
</metadata>
<g transform="translate(0.000000,900.000000) scale(0.100000,-0.100000)"
fill="#000000" stroke="none">
<path d="M4266 8862 c-3 -5 -22 -8 -42 -5 -19 2 -33 0 -31 -4 3 -4 -13 -7 -36
-7 -23 1 -47 -5 -55 -12 -7 -8 -18 -12 -23 -9 -5 4 -6 -1 -3 -9 3 -9 1 -16 -6
-16 -6 0 -9 -4 -6 -9 11 -17 -20 -40 -59 -45 -65 -9 -174 -41 -240 -71 -16 -7
-33 -11 -37 -9 -4 3 -8 1 -8 -4 0 -6 -27 -9 -60 -8 -33 1 -60 -2 -60 -6 0 -4
-6 -5 -14 -2 -7 3 -21 -2 -30 -11 -9 -9 -16 -14 -16 -11 0 9 -33 -27 -54 -58
-11 -17 -13 -25 -5 -20 11 6 12 5 2 -8 -7 -8 -10 -18 -6 -21 3 -4 0 -7 -7 -7
-7 0 -10 -3 -7 -7 4 -3 -2 -13 -13 -20 -11 -8 -18 -19 -15 -24 3 -5 -1 -6 -10
-3 -11 5 -14 2 -9 -10 4 -11 2 -16 -7 -14 -8 2 -13 -3 -11 -10 1 -8 -2 -11 -7
-7 -6 3 -15 -4 -21 -15 -6 -12 -20 -30 -31 -41 -10 -10 -19 -24 -19 -30 0 -5
-4 -7 -10 -4 -9 5 -15 -16 -11 -38 1 -5 -3 -6 -9 -2 -6 4 -15 -7 -21 -24 -6
-18 -16 -28 -22 -24 -6 4 -8 0 -4 -10 3 -10 2 -17 -4 -17 -6 0 -8 -4 -5 -9 3
-5 -1 -11 -9 -15 -8 -3 -15 -12 -15 -21 0 -8 -4 -15 -9 -15 -5 0 -8 -11 -7
-24 2 -16 -1 -23 -9 -20 -8 3 -15 -8 -19 -31 -4 -19 -11 -33 -16 -30 -6 3 -8
-7 -6 -25 3 -25 1 -28 -11 -19 -11 10 -12 9 -7 -5 3 -9 1 -16 -4 -16 -6 0 -9
-9 -7 -20 2 -11 0 -20 -5 -20 -4 0 -11 -7 -14 -16 -4 -10 -2 -13 6 -8 6 4 4
-3 -5 -15 -8 -13 -13 -30 -10 -39 5 -11 3 -13 -7 -7 -8 5 -11 4 -6 -3 3 -6 1
-23 -5 -39 -7 -15 -14 -44 -16 -63 -2 -19 -8 -39 -13 -44 -5 -5 -5 -17 1 -29
8 -14 8 -18 0 -12 -8 4 -10 -2 -7 -19 3 -15 1 -24 -4 -21 -4 3 -11 -2 -14 -11
-3 -8 -2 -12 3 -9 11 6 8 -41 -2 -52 -12 -11 -7 -24 6 -17 8 5 8 2 -2 -9 -11
-14 -11 -20 -1 -32 10 -12 9 -16 -4 -21 -9 -3 -16 -10 -16 -16 0 -5 5 -6 11
-2 7 4 7 -1 -1 -16 -10 -18 -9 -24 1 -31 11 -7 11 -9 1 -9 -7 0 -11 -4 -8 -9
4 -5 0 -12 -6 -14 -10 -4 -9 -6 1 -6 11 -1 11 -4 1 -16 -9 -11 -9 -15 -1 -15
8 0 9 -6 2 -18 -6 -11 -6 -24 1 -36 7 -12 7 -16 0 -13 -11 7 -25 -50 -16 -64
3 -5 0 -8 -8 -7 -7 2 -12 -3 -10 -9 1 -7 -3 -13 -10 -13 -6 0 -9 -3 -5 -6 5
-6 1 -12 -58 -76 -18 -20 -31 -39 -28 -41 2 -3 -5 -8 -17 -12 -12 -4 -19 -13
-16 -20 3 -8 -2 -11 -14 -8 -10 3 -21 -1 -25 -8 -6 -8 -4 -10 5 -4 8 5 11 4 6
-3 -4 -6 -13 -9 -21 -5 -8 3 -15 0 -15 -6 0 -6 -7 -8 -17 -4 -11 4 -14 3 -9
-5 4 -8 0 -12 -12 -12 -10 0 -22 -3 -26 -7 -7 -8 -11 -9 -37 -12 -5 0 -8 -5
-5 -10 4 -5 -4 -7 -16 -3 -15 3 -19 2 -14 -7 5 -8 0 -10 -18 -7 -15 3 -24 1
-21 -5 4 -5 1 -9 -6 -9 -7 0 -21 -8 -32 -17 -11 -10 -18 -13 -14 -7 3 6 0 11
-8 11 -8 0 -12 -4 -9 -9 3 -4 -2 -8 -11 -8 -10 0 -13 -5 -9 -12 5 -8 2 -8 -10
1 -15 12 -17 12 -14 0 2 -8 -4 -13 -14 -13 -10 1 -18 -3 -18 -8 0 -6 -7 -7
-16 -4 -8 3 -12 2 -9 -3 3 -5 -10 -15 -29 -22 -19 -7 -32 -17 -29 -23 4 -5 -1
-7 -11 -3 -10 4 -19 1 -22 -8 -4 -8 -14 -15 -24 -15 -10 0 -26 -7 -34 -16 -9
-8 -16 -12 -16 -7 0 4 -5 0 -11 -10 -6 -9 -14 -15 -20 -12 -5 4 -9 1 -9 -5 0
-6 -5 -8 -10 -5 -6 3 -13 0 -16 -9 -3 -8 -14 -13 -25 -11 -10 2 -18 -1 -16 -8
1 -7 -6 -11 -15 -11 -10 1 -15 -2 -12 -7 3 -5 0 -9 -6 -9 -6 0 -9 -4 -5 -9 3
-6 -4 -8 -15 -6 -12 2 -23 -2 -27 -10 -3 -8 -9 -13 -13 -10 -4 3 -11 -2 -14
-11 -3 -8 -10 -12 -16 -9 -6 3 -13 -1 -16 -9 -3 -9 -13 -16 -21 -16 -8 0 -11
-5 -7 -12 4 -7 3 -8 -4 -4 -6 4 -20 -2 -31 -13 -11 -11 -22 -17 -25 -13 -3 3
-6 0 -6 -7 0 -7 -7 -11 -14 -8 -11 4 -13 1 -9 -10 4 -10 2 -14 -5 -9 -6 3 -23
-5 -38 -19 -14 -13 -32 -22 -38 -18 -6 3 -8 3 -4 -2 9 -9 -63 -66 -74 -59 -4
3 -5 -2 -2 -11 4 -9 3 -15 -2 -14 -20 3 -35 -2 -30 -10 3 -5 -1 -12 -10 -15
-10 -4 -13 -2 -8 6 4 7 3 8 -4 4 -7 -4 -12 -14 -12 -22 0 -8 -7 -14 -16 -14
-8 0 -12 -4 -9 -10 3 -5 -1 -10 -9 -10 -9 0 -16 -5 -16 -11 0 -5 -4 -7 -10 -4
-5 3 -10 -2 -10 -12 0 -14 -2 -15 -9 -5 -6 10 -10 9 -14 -7 -3 -11 -19 -29
-36 -38 -17 -10 -31 -24 -31 -32 0 -8 -3 -12 -6 -8 -3 3 -19 -8 -35 -24 -16
-16 -29 -27 -29 -24 0 2 -13 -9 -28 -25 -16 -16 -32 -26 -36 -22 -4 4 -6 2 -4
-3 4 -12 -43 -61 -54 -58 -7 3 -12 -19 -10 -38 1 -4 -6 -6 -16 -5 -9 0 -16 -5
-15 -11 2 -7 0 -12 -5 -11 -12 4 -81 -69 -74 -78 4 -4 -1 -4 -11 -1 -10 4 -16
3 -12 -3 3 -5 -3 -15 -14 -21 -10 -7 -17 -19 -14 -26 3 -7 -2 -13 -11 -13 -9
0 -16 -7 -16 -16 0 -8 -4 -12 -10 -9 -5 3 -10 2 -10 -2 0 -5 -7 -18 -16 -29
-8 -10 -12 -13 -8 -5 5 10 3 12 -5 7 -9 -6 -9 -11 -1 -21 10 -11 8 -13 -9 -10
-12 2 -19 0 -16 -5 3 -5 -3 -17 -15 -27 -11 -10 -20 -24 -20 -31 0 -8 -6 -12
-15 -8 -8 3 -14 2 -14 -2 3 -21 -2 -32 -13 -26 -6 4 -8 3 -4 -4 3 -6 2 -13 -4
-17 -6 -4 -8 -11 -5 -16 3 -5 -1 -6 -9 -3 -11 4 -16 0 -16 -10 0 -9 -5 -16
-11 -16 -6 0 -8 -7 -5 -16 3 -8 2 -12 -4 -9 -6 3 -13 -2 -17 -12 -9 -25 -29
-43 -37 -35 -4 3 -4 -2 0 -12 5 -14 4 -17 -4 -12 -7 4 -12 1 -12 -8 0 -9 -4
-16 -10 -16 -5 0 -7 -7 -4 -15 4 -10 0 -15 -11 -15 -9 0 -13 -4 -10 -10 3 -5
1 -10 -5 -10 -6 0 -9 -3 -7 -7 7 -11 -19 -33 -27 -25 -4 3 -4 -2 0 -12 5 -14
4 -17 -4 -12 -7 4 -12 1 -12 -9 0 -8 -7 -18 -15 -21 -12 -5 -13 -9 -4 -21 7
-8 8 -13 3 -11 -5 2 -9 -1 -9 -5 0 -5 -8 -13 -17 -18 -10 -6 -18 -17 -18 -25
0 -8 -4 -12 -10 -9 -5 3 -7 0 -4 -8 3 -8 -2 -17 -11 -21 -9 -3 -14 -10 -11
-15 3 -5 -1 -14 -9 -21 -8 -7 -12 -17 -8 -23 4 -7 0 -8 -13 -3 -10 4 -15 4
-11 0 4 -4 1 -14 -6 -22 -10 -13 -9 -14 3 -7 8 4 5 -3 -7 -17 -13 -13 -23 -32
-23 -41 0 -10 -7 -20 -15 -23 -8 -4 -12 -10 -9 -15 3 -5 0 -9 -5 -9 -6 0 -10
-6 -8 -12 1 -7 -3 -12 -9 -11 -7 1 -10 -6 -7 -17 3 -11 0 -20 -6 -20 -6 0 -11
-9 -11 -21 0 -11 -4 -17 -10 -14 -5 3 -7 0 -4 -8 3 -8 -2 -17 -10 -20 -9 -4
-13 -13 -10 -22 3 -8 2 -15 -4 -15 -5 0 -13 -7 -16 -16 -4 -10 -2 -13 7 -9 6
4 4 0 -7 -9 -10 -8 -15 -19 -11 -25 3 -6 1 -11 -4 -11 -6 0 -11 -7 -11 -16 0
-8 -4 -12 -10 -9 -6 4 -7 -1 -3 -11 4 -12 3 -15 -5 -10 -8 5 -10 2 -6 -8 3 -9
1 -16 -6 -16 -6 0 -9 -4 -6 -9 3 -5 -1 -14 -10 -21 -8 -7 -13 -19 -10 -27 3
-7 1 -13 -5 -13 -6 0 -7 -4 -4 -10 3 -5 1 -10 -5 -10 -6 0 -8 -4 -5 -10 3 -5
1 -10 -4 -10 -6 0 -10 -3 -9 -7 2 -5 -5 -27 -15 -51 -9 -23 -17 -44 -17 -47 0
-3 -7 -19 -15 -35 -8 -16 -15 -32 -15 -35 1 -22 -2 -25 -13 -19 -6 4 -9 4 -5
-1 4 -4 2 -15 -5 -23 -9 -13 -9 -14 0 -8 9 5 11 2 7 -8 -3 -9 -9 -14 -13 -12
-4 3 -6 -11 -6 -29 1 -19 -2 -32 -7 -29 -4 3 -8 -4 -8 -15 0 -11 -5 -23 -11
-26 -6 -4 -8 -13 -5 -21 3 -7 1 -16 -5 -19 -5 -4 -7 -11 -4 -16 4 -5 1 -9 -5
-9 -6 0 -10 -6 -9 -12 1 -7 1 -22 0 -33 -1 -17 -3 -18 -11 -5 -8 11 -9 8 -4
-12 3 -16 2 -28 -4 -28 -5 0 -8 -11 -7 -25 2 -14 -1 -25 -7 -25 -5 0 -8 -6 -5
-12 2 -7 -2 -26 -10 -42 -8 -15 -10 -25 -4 -22 5 4 4 -6 -4 -20 -8 -15 -12
-31 -9 -36 3 -4 1 -8 -5 -8 -6 0 -8 -7 -5 -15 4 -9 0 -15 -7 -15 -11 0 -11 -3
1 -10 8 -5 10 -10 4 -10 -6 0 -10 -13 -9 -30 1 -17 -2 -27 -8 -23 -6 4 -8 0
-4 -10 3 -10 2 -17 -4 -17 -7 0 -7 -6 0 -17 7 -13 5 -23 -6 -35 -11 -12 -12
-18 -4 -18 7 0 9 -5 6 -10 -4 -6 -9 -8 -13 -6 -4 2 -7 -20 -7 -50 0 -30 -4
-54 -9 -54 -4 0 -6 -11 -4 -25 3 -14 2 -25 -3 -25 -4 0 -6 -9 -4 -20 2 -11 1
-20 -3 -20 -4 0 -8 -26 -10 -57 -1 -32 -3 -65 -3 -73 0 -8 -3 -22 -6 -30 -3
-8 -7 -44 -7 -80 -1 -36 -5 -71 -9 -77 -5 -8 -4 -13 2 -13 6 0 11 -5 11 -11 0
-5 -4 -8 -9 -5 -12 8 -9 -94 3 -113 6 -9 5 -12 -1 -8 -13 8 -12 -391 0 -410 5
-7 4 -13 -1 -13 -5 0 -6 -17 -2 -42 8 -44 6 -69 -6 -91 -6 -9 -5 -9 7 0 14 11
16 8 17 -25 1 -20 6 -38 12 -40 6 -2 4 -10 -5 -18 -16 -16 -9 -47 9 -37 7 4 7
2 -1 -7 -9 -10 -9 -18 -1 -34 10 -19 10 -20 -6 -7 -14 12 -16 12 -10 -3 3 -9
11 -16 18 -16 6 0 4 -5 -4 -10 -12 -8 -12 -10 -1 -10 11 0 11 -3 1 -15 -10
-13 -10 -19 2 -33 21 -24 29 -50 17 -58 -6 -3 -3 -12 8 -21 14 -11 14 -14 2
-10 -9 3 -16 -1 -16 -8 0 -8 3 -14 6 -13 19 2 24 -4 11 -12 -13 -8 -12 -10 4
-10 20 0 20 0 0 -14 -18 -14 -18 -15 6 -25 14 -5 19 -10 12 -10 -9 -1 -10 -6
-4 -19 5 -9 7 -23 5 -30 -3 -7 -1 -18 5 -25 5 -7 8 -21 6 -32 -1 -11 2 -23 9
-27 8 -5 5 -8 -8 -8 -17 0 -17 -2 -5 -10 8 -5 11 -10 6 -10 -6 0 -1 -7 10 -16
10 -8 13 -13 7 -9 -9 4 -12 -2 -11 -19 2 -16 9 -26 18 -26 13 0 13 -1 0 -10
-10 -6 -11 -10 -2 -10 6 0 12 -5 12 -11 0 -5 -4 -7 -10 -4 -6 3 -7 -1 -4 -9 3
-9 10 -16 15 -16 5 0 9 -5 9 -11 0 -5 -4 -8 -9 -5 -10 7 -8 -9 4 -36 4 -10 12
-15 18 -11 6 4 7 1 2 -7 -4 -7 -2 -16 6 -21 11 -7 10 -9 -3 -9 -10 0 -18 -5
-18 -11 0 -5 5 -7 11 -4 16 10 7 -28 -11 -43 -13 -12 -13 -13 0 -6 12 7 13 5
3 -8 -7 -8 -9 -19 -5 -23 4 -5 1 -5 -5 -1 -8 4 -13 1 -13 -9 0 -8 -7 -18 -15
-21 -11 -5 -13 -10 -5 -19 8 -10 8 -15 -1 -21 -8 -5 -9 -3 -4 6 6 9 4 11 -4 5
-7 -4 -11 -16 -8 -26 3 -10 0 -17 -6 -16 -14 3 -16 -26 -2 -35 6 -5 2 -8 -9
-8 -16 0 -17 -2 -5 -17 10 -11 10 -14 2 -9 -7 4 -14 4 -14 -1 -1 -4 -3 -21 -5
-38 -2 -16 -8 -31 -14 -33 -6 -2 -4 -10 7 -18 13 -10 14 -13 3 -12 -17 4 -21
-21 -6 -41 8 -11 8 -13 -1 -7 -8 4 -14 2 -14 -6 -1 -7 -3 -24 -5 -38 -3 -14
-5 -31 -6 -37 -1 -7 -5 -13 -10 -13 -5 0 -8 -88 -7 -195 1 -131 5 -193 12
-188 6 4 7 1 1 -8 -4 -8 -9 -28 -9 -46 -1 -27 1 -31 13 -20 13 10 14 8 7 -12
-6 -20 -4 -23 9 -18 10 4 15 3 11 -2 -8 -14 6 -42 18 -34 6 3 7 1 3 -6 -8 -12
18 -44 28 -34 3 3 8 -2 12 -11 3 -9 13 -16 21 -16 8 0 12 -4 9 -9 -3 -5 11
-17 32 -26 20 -10 45 -27 54 -37 9 -11 21 -17 26 -14 6 3 13 -1 16 -10 4 -9 9
-14 12 -11 4 3 13 -1 21 -9 9 -8 22 -13 29 -10 9 4 14 -2 14 -17 0 -12 4 -17
8 -12 12 16 32 16 38 0 3 -8 10 -13 14 -10 4 3 20 -1 35 -9 15 -8 34 -12 43
-9 9 4 13 2 9 -4 -4 -7 0 -10 10 -8 10 1 24 -2 31 -8 8 -6 12 -5 12 4 0 10 2
11 8 2 4 -6 30 -15 57 -19 28 -3 53 -11 57 -18 6 -8 8 -8 8 1 0 7 7 10 15 7 8
-4 12 -11 8 -18 -4 -7 -1 -6 9 2 8 7 23 10 32 6 10 -4 16 -1 16 7 1 9 4 8 11
-4 5 -9 20 -17 32 -18 12 0 16 -3 9 -6 -10 -4 -8 -9 7 -20 12 -8 21 -21 21
-30 0 -12 3 -13 14 -4 12 10 13 8 9 -8 -4 -15 -1 -21 10 -21 9 0 19 -9 22 -20
4 -11 11 -18 16 -15 5 4 9 2 9 -4 0 -5 -6 -12 -12 -14 -7 -3 -2 -6 12 -7 14
-1 19 -4 12 -7 -9 -4 -7 -10 7 -22 12 -10 17 -21 14 -25 -4 -4 0 -4 9 -1 9 4
18 0 22 -10 3 -9 11 -13 16 -10 6 4 17 1 25 -5 8 -7 15 -9 15 -5 0 4 6 3 12
-2 7 -5 32 -15 56 -23 28 -9 38 -16 30 -21 -10 -6 -9 -9 2 -14 8 -3 1115 -4
2460 -3 2167 3 2445 5 2442 18 -3 12 -1 12 9 3 12 -12 42 -7 34 6 -2 4 6 7 18
6 12 -1 25 3 29 9 5 7 8 7 8 -2 0 -7 5 -10 10 -7 6 3 10 -3 10 -14 l0 -21 873
0 c479 0 878 4 885 9 8 4 14 12 14 17 0 5 7 18 15 29 12 16 14 16 10 3 -4 -10
-5 -18 -3 -18 10 0 54 49 49 54 -4 3 1 6 11 6 9 0 14 5 11 10 -3 6 1 13 9 16
15 6 32 41 28 57 -1 5 1 7 5 5 5 -3 19 7 33 20 14 14 18 21 10 17 -13 -8 -13
-6 -1 8 7 9 17 14 22 11 5 -3 6 3 2 12 -4 12 -3 15 5 10 11 -6 14 0 11 21 0 3
6 10 15 15 9 5 16 13 16 19 0 5 9 19 20 31 10 12 17 25 14 30 -3 4 2 8 11 8 9
0 14 4 11 9 -3 5 1 14 9 21 8 7 13 16 10 20 -3 4 2 10 10 14 8 3 15 12 15 21
0 8 5 15 10 15 6 0 10 7 10 15 0 8 5 15 10 15 6 0 10 7 10 15 0 8 5 15 10 15
6 0 9 3 9 8 -3 19 2 33 10 27 6 -3 8 4 6 15 -2 13 1 20 11 20 8 0 12 4 9 10
-3 5 -1 10 4 10 6 0 10 3 10 8 -1 4 -1 16 0 27 1 17 3 18 11 5 8 -13 10 -12
11 5 1 11 3 25 3 32 1 6 5 15 10 20 5 4 6 3 2 -4 -4 -7 -5 -13 -2 -13 2 0 11
14 20 30 8 17 10 28 5 24 -6 -3 -5 3 2 14 7 12 16 19 20 16 4 -2 6 4 5 13 -2
10 4 24 13 31 13 11 13 12 1 7 -12 -5 -12 -4 1 7 9 7 15 21 13 31 -1 9 2 15 7
11 9 -5 12 4 12 39 0 14 2 15 16 5 9 -7 13 -8 9 -4 -4 5 -2 16 5 24 8 11 8 13
0 9 -8 -5 -8 -1 0 18 7 14 16 25 20 25 5 0 5 5 2 10 -3 6 -1 10 5 10 6 0 9 4
6 9 -3 5 1 14 9 21 7 6 11 18 8 26 -3 8 0 14 6 14 6 0 10 3 10 8 -4 25 2 42
14 36 9 -6 9 -5 -1 8 -10 12 -10 17 1 27 8 6 18 7 23 3 4 -4 4 0 -2 8 -12 16
7 66 19 53 4 -3 7 -1 7 5 0 7 -6 12 -12 12 -8 0 -9 3 -3 8 6 4 11 14 13 22 2
8 8 16 13 18 5 2 5 11 -1 22 -7 13 -5 22 9 34 10 9 20 14 22 12 2 -3 4 10 4
27 0 21 5 31 13 29 10 -2 10 2 2 17 -12 24 -13 34 -1 26 5 -3 12 -1 16 5 3 5
0 10 -7 10 -8 0 -6 5 5 11 19 11 24 34 5 24 -7 -4 -4 0 6 9 17 13 17 18 5 33
-9 11 -10 14 -1 9 6 -4 12 -4 13 1 0 4 2 17 5 28 2 11 5 30 6 42 1 12 5 20 9
17 4 -2 10 0 14 6 3 5 0 10 -7 10 -10 0 -10 2 -1 8 11 7 20 43 22 85 1 11 6
15 13 11 7 -4 8 -3 4 5 -4 6 -2 19 6 28 9 12 9 15 1 9 -17 -9 -16 -3 2 41 18
43 18 46 3 37 -7 -4 -2 5 12 20 18 20 20 25 7 20 -25 -9 -21 11 6 25 12 6 14
9 4 6 -12 -3 -16 -1 -10 7 4 7 8 19 9 28 1 8 5 24 9 34 7 15 5 18 -6 12 -8 -4
-5 0 5 8 15 12 16 16 5 16 -8 0 -10 3 -4 8 6 4 11 18 12 32 1 14 4 34 6 45 3
11 0 26 -6 33 -7 9 -5 11 8 6 14 -6 16 -4 10 6 -12 19 -13 60 -2 53 5 -3 6 5
2 17 -4 12 -3 20 1 17 5 -3 9 15 10 38 0 29 -3 42 -10 38 -6 -3 -5 0 2 8 16
17 16 32 0 24 -7 -4 -5 0 5 8 18 15 18 16 0 26 -17 10 -17 10 1 11 18 0 18 1
4 13 -23 17 -27 49 -8 65 13 12 13 13 0 9 -10 -3 -15 3 -15 19 0 13 5 24 10
24 6 0 3 5 -5 10 -13 9 -13 10 0 10 13 0 13 1 0 10 -10 6 -11 10 -3 10 9 0 10
7 4 22 -4 13 -5 34 -1 48 4 14 2 31 -3 38 -5 7 -6 12 0 12 5 0 9 9 9 20 0 11
-5 20 -10 20 -5 0 -1 7 10 16 10 8 14 13 7 10 -8 -5 -11 16 -10 74 1 45 -2 82
-8 84 -7 3 -7 5 0 5 11 1 11 102 1 120 -4 6 -3 11 3 11 7 0 7 8 2 22 -4 13 -5
36 0 51 7 25 6 28 -9 23 -16 -6 -16 -5 0 7 10 8 13 18 9 26 -5 7 -5 30 -1 51
4 21 4 44 -1 51 -4 7 -5 19 -1 27 3 9 1 13 -5 9 -5 -3 -10 0 -10 8 0 8 4 12 9
9 4 -3 8 0 8 5 0 6 -4 11 -9 11 -11 0 -8 46 2 57 12 11 7 24 -5 17 -10 -6 -10
-4 0 8 10 13 10 17 0 21 -11 4 -10 6 0 6 8 1 10 6 6 13 -9 13 -11 31 -15 90
-1 20 -5 35 -9 33 -4 -2 -7 2 -7 10 0 8 5 15 11 15 7 0 6 3 -1 8 -7 5 -14 20
-15 35 -1 15 -7 27 -13 27 -5 0 -3 5 5 10 8 5 10 10 4 10 -15 0 -26 40 -11 40
8 0 7 4 -2 9 -11 7 -11 9 0 14 11 4 11 6 1 6 -7 1 -10 5 -7 11 3 5 1 10 -5 10
-7 0 -10 7 -6 15 3 8 0 15 -7 15 -9 0 -8 3 1 9 11 6 10 10 -3 15 -14 5 -15 9
-5 21 7 9 8 15 2 15 -5 0 -13 7 -16 16 -3 8 -2 12 4 9 6 -3 10 -1 10 4 0 6 -6
11 -12 11 -9 0 -8 4 2 10 13 8 13 10 -2 10 -11 0 -15 7 -13 25 1 14 -2 28 -7
31 -4 3 -6 10 -3 15 4 5 0 9 -7 9 -9 0 -9 3 2 10 13 8 12 10 -3 10 -10 0 -15
5 -12 10 4 6 1 18 -7 27 -7 9 -8 14 -2 10 6 -3 11 0 11 8 0 8 -5 13 -11 12 -6
-1 -10 4 -8 12 1 7 -2 19 -8 26 -6 7 -10 17 -8 21 1 5 -4 25 -11 44 -8 19 -13
38 -12 43 0 4 -4 7 -10 7 -5 0 -7 5 -4 10 4 6 -1 22 -9 35 -9 14 -14 25 -11
25 3 0 -1 13 -10 30 -8 16 -15 31 -14 32 5 8 -14 47 -21 43 -4 -3 -6 4 -3 15
3 12 0 20 -6 20 -7 0 -10 4 -7 9 3 4 -1 17 -9 27 -8 10 -15 27 -15 37 0 9 -5
17 -11 17 -5 0 -7 5 -4 11 4 5 -1 20 -12 31 -12 14 -13 19 -3 13 9 -5 8 0 -4
13 -11 12 -15 22 -10 22 5 0 3 4 -4 9 -7 4 -15 14 -17 22 -9 39 -18 59 -28 59
-6 0 -7 3 -4 7 4 3 -1 15 -10 26 -10 11 -12 17 -5 13 11 -7 12 -4 3 13 -7 11
-17 21 -24 21 -7 0 -6 4 3 10 13 8 12 10 -3 10 -10 0 -16 4 -13 9 3 5 -1 14
-10 21 -8 7 -13 19 -10 26 3 7 -2 15 -10 18 -9 3 -12 10 -9 16 3 5 2 10 -3 10
-9 0 -37 50 -34 63 1 4 -3 7 -8 7 -6 0 -10 7 -10 15 0 8 -5 15 -11 15 -5 0 -8
4 -5 9 3 5 -1 14 -9 21 -8 7 -12 16 -9 21 3 5 -2 9 -11 9 -9 0 -15 6 -12 13 2
6 -3 18 -12 25 -10 8 -10 11 -2 6 9 -5 12 -3 7 4 -4 7 -15 12 -24 12 -15 0
-15 2 -2 10 10 6 11 10 3 10 -7 0 -13 6 -13 13 0 7 -9 19 -20 27 -11 8 -20 20
-20 27 0 7 -5 13 -12 13 -6 0 -8 3 -5 7 4 3 -1 12 -11 20 -11 10 -12 12 -2 8
8 -4 4 3 -10 15 -14 12 -18 19 -10 15 8 -4 6 1 -4 9 -11 9 -17 16 -13 16 3 0
-4 11 -16 24 -31 34 -47 54 -50 63 -1 5 -5 7 -9 6 -5 -2 -7 0 -6 5 3 14 -14
42 -23 36 -5 -3 -9 -2 -8 3 4 22 -3 33 -18 33 -15 0 -16 2 -3 10 13 8 12 10
-2 10 -17 0 -23 12 -18 35 1 5 -1 7 -5 3 -9 -9 -56 42 -49 53 3 5 -2 9 -10 9
-8 0 -18 9 -21 20 -3 11 -14 20 -22 20 -9 0 -14 3 -10 6 3 3 -2 14 -11 23 -33
35 -52 61 -52 72 0 5 -3 8 -7 6 -5 -3 -14 1 -21 9 -7 8 -9 14 -5 14 4 0 -4 8
-20 18 -15 10 -24 22 -20 25 3 4 -2 7 -13 7 -16 0 -17 2 -4 10 13 8 13 10 -1
10 -9 0 -24 11 -35 24 -10 14 -21 23 -25 21 -4 -3 -9 4 -12 15 -3 11 -12 20
-21 20 -9 0 -16 7 -16 16 0 8 -4 13 -9 10 -4 -3 -13 6 -19 19 -7 14 -18 25
-26 25 -9 0 -13 6 -10 15 4 10 0 13 -15 10 -11 -2 -20 -1 -19 3 3 15 -15 42
-28 42 -8 0 -14 5 -14 11 0 5 -5 7 -12 3 -7 -4 -8 -3 -4 5 4 6 0 14 -8 17 -9
3 -13 10 -10 15 3 5 -2 6 -10 3 -9 -3 -16 -1 -16 6 0 6 -4 8 -10 5 -9 -6 -14
8 -11 28 1 5 -3 6 -9 2 -5 -3 -10 -2 -10 4 0 5 -8 12 -19 16 -10 3 -23 15 -29
28 -6 13 -11 16 -11 7 -1 -10 -6 -7 -17 8 -8 12 -22 22 -30 22 -8 0 -13 4 -10
9 3 5 -4 11 -15 14 -12 3 -19 10 -15 15 3 5 -13 16 -34 26 -22 10 -40 24 -40
32 0 8 -4 13 -9 9 -5 -3 -20 5 -33 17 -13 13 -30 24 -38 26 -8 2 -19 8 -25 14
-7 8 -6 8 4 3 9 -5 12 -4 7 3 -4 7 -12 12 -18 12 -6 0 -17 8 -25 18 -8 9 -12
11 -8 5 11 -22 -7 -14 -33 15 -13 15 -21 20 -17 12 4 -10 1 -9 -8 2 -8 10 -17
15 -20 11 -4 -3 -7 -2 -7 4 0 6 -9 13 -21 16 -12 3 -18 10 -15 15 3 6 -2 8
-13 5 -13 -3 -21 2 -26 16 -4 12 -12 18 -20 14 -8 -3 -18 2 -21 11 -3 9 -14
16 -25 16 -10 0 -22 6 -26 14 -4 8 -12 16 -18 17 -27 5 -54 23 -48 32 3 6 1 7
-5 3 -6 -3 -13 -2 -17 4 -3 5 -15 10 -26 10 -13 0 -18 4 -13 12 5 7 0 9 -14 6
-16 -5 -19 -2 -15 11 4 9 2 13 -2 8 -5 -4 -17 1 -28 10 -15 13 -18 14 -12 3 7
-12 6 -13 -7 -3 -8 7 -18 9 -22 5 -4 -4 -6 0 -4 8 2 9 -6 16 -19 18 -13 2 -23
8 -23 13 0 6 -5 7 -11 4 -6 -4 -17 1 -25 11 -9 11 -13 14 -10 7 5 -8 0 -8 -18
0 -13 7 -22 15 -20 19 3 4 -1 5 -9 2 -8 -3 -18 0 -22 5 -3 6 -11 9 -16 6 -5
-4 -9 -1 -9 4 0 6 -5 11 -12 11 -6 0 -20 8 -31 18 -11 9 -17 11 -13 5 4 -7 5
-13 2 -13 -11 0 -75 37 -72 41 3 2 -6 5 -19 5 -14 1 -32 9 -40 18 -20 19 -31
21 -19 3 5 -7 2 -6 -6 3 -8 8 -26 16 -40 18 -14 1 -29 8 -35 15 -5 7 -18 11
-27 9 -10 -2 -18 2 -18 9 0 7 -3 9 -6 6 -4 -3 -15 -2 -26 4 -11 6 -32 13 -46
15 -15 3 -29 8 -32 12 -5 6 -24 11 -57 14 -7 1 -13 4 -13 8 0 4 -6 7 -12 8 -7
0 -24 3 -38 7 -14 4 -31 7 -37 7 -7 1 -13 6 -13 11 0 6 -3 7 -7 4 -3 -4 -13
-1 -21 6 -13 10 -14 9 -8 -1 12 -19 -34 5 -52 27 -11 14 -11 14 -7 -4 3 -11
-1 -6 -9 10 -8 17 -15 38 -16 48 0 9 -4 17 -8 17 -5 0 -9 7 -9 15 0 8 5 15 11
15 6 0 4 4 -4 10 -8 5 -11 12 -7 16 4 4 2 13 -4 21 -9 9 -8 13 0 13 9 0 9 5 1
20 -8 14 -8 20 0 20 6 0 8 5 3 12 -4 7 -6 26 -4 42 2 17 -1 26 -8 22 -10 -7
-8 25 4 43 3 5 0 13 -6 17 -8 4 -7 9 2 15 10 6 11 9 2 9 -7 0 -13 5 -13 11 0
5 5 7 11 3 6 -3 3 6 -7 22 -11 15 -13 25 -7 21 9 -6 11 -3 7 7 -3 9 -11 16
-16 16 -6 0 -5 6 2 15 10 12 10 15 -1 15 -11 0 -11 2 1 10 12 7 12 10 1 10 -7
0 -11 6 -7 15 3 8 1 15 -3 15 -5 0 -8 11 -6 25 1 14 -1 25 -4 25 -4 0 -8 12
-9 26 -1 15 -8 34 -15 42 -10 13 -9 14 2 8 9 -6 8 0 -4 17 -9 14 -16 28 -16
31 1 4 1 7 0 9 0 1 -3 13 -5 27 -2 13 -9 27 -15 31 -6 3 -10 10 -10 15 2 25
-39 124 -52 124 -5 0 -6 4 -2 9 3 5 -2 17 -11 25 -10 11 -11 16 -3 16 7 0 2 9
-10 19 -12 11 -22 22 -22 25 3 20 -1 26 -16 26 -15 0 -16 2 -3 10 8 5 10 10 5
10 -6 0 -19 16 -29 35 -10 19 -23 32 -29 28 -6 -4 -7 -1 -3 6 5 7 1 20 -8 29
-57 61 -66 72 -61 72 3 0 0 6 -7 14 -7 8 -16 12 -20 9 -5 -2 -8 1 -8 7 0 7
-16 27 -35 46 -19 18 -35 43 -35 54 0 11 -4 20 -10 20 -5 0 -7 7 -4 15 4 8 -1
17 -10 21 -9 3 -13 10 -10 15 3 5 -2 9 -11 9 -8 0 -18 7 -21 15 -4 8 -10 12
-15 9 -5 -3 -9 -1 -9 4 0 5 -6 9 -12 10 -7 0 -24 3 -38 6 -13 3 -39 2 -56 -3
-18 -5 -36 -5 -41 0 -9 9 -141 61 -163 64 -8 0 -24 6 -35 12 -11 6 -32 10 -47
9 -16 -1 -28 2 -28 6 0 4 -13 6 -29 4 -23 -2 -28 0 -23 12 3 10 1 13 -6 8 -6
-4 -18 8 -27 28 -15 31 -46 54 -67 48 -5 -1 -8 2 -8 6 0 4 -12 7 -27 6 -16 -1
-33 3 -40 8 -7 5 -14 5 -17 -1 -4 -6 -18 -6 -36 -1 -19 5 -32 5 -36 -2 -4 -7
-9 -6 -14 2 -5 7 -10 8 -14 2z m1409 -2182 c5 8 12 6 25 -5 10 -9 24 -14 29
-10 6 3 11 1 11 -4 0 -6 11 -11 25 -11 14 0 25 -6 26 -12 0 -10 2 -10 6 -1 3
10 8 9 20 -2 8 -8 18 -13 23 -10 5 3 11 1 15 -5 3 -5 15 -10 26 -10 10 0 19
-5 19 -11 0 -5 5 -7 11 -3 6 3 15 0 20 -7 7 -12 9 -11 9 1 0 13 2 13 9 1 5 -8
17 -16 26 -17 9 -1 37 -13 63 -25 26 -13 50 -22 55 -21 4 1 7 -2 7 -7 0 -5 7
-12 16 -15 15 -6 15 -4 3 11 -7 10 -1 7 14 -6 15 -14 27 -21 27 -16 0 4 9 0
19 -9 11 -10 25 -15 32 -10 7 4 10 3 6 -3 -7 -12 20 -26 33 -18 4 3 13 -2 20
-10 7 -8 19 -15 26 -15 8 0 14 -4 14 -10 0 -5 9 -10 20 -10 11 0 20 -4 20 -10
0 -5 9 -10 20 -10 11 0 20 -4 20 -9 0 -8 37 -24 53 -22 4 1 7 -6 7 -15 0 -8 5
-12 10 -9 6 3 10 1 10 -4 0 -6 3 -11 8 -10 15 2 52 -14 52 -22 0 -5 7 -9 15
-9 8 0 15 -5 15 -11 0 -5 5 -7 10 -4 6 3 10 0 10 -8 0 -9 9 -13 26 -11 22 2
24 0 12 -14 -7 -9 -9 -14 -4 -10 10 8 74 -24 104 -52 12 -12 22 -18 22 -14 0
4 8 -3 19 -14 10 -12 21 -19 24 -15 4 3 9 -2 13 -11 3 -9 12 -16 20 -16 8 0
14 -4 14 -10 0 -5 7 -10 15 -10 9 0 18 -7 22 -16 3 -8 17 -20 30 -25 15 -5 21
-14 17 -21 -4 -7 -3 -8 5 -4 13 8 44 -18 33 -29 -4 -4 -2 -6 3 -5 21 5 36 0
30 -10 -3 -5 4 -10 15 -10 15 0 20 -5 17 -14 -4 -10 0 -14 13 -11 11 2 19 -1
17 -8 -1 -7 4 -11 10 -10 7 2 12 0 10 -5 -4 -12 39 -48 53 -44 7 3 11 1 8 -4
-2 -5 8 -22 24 -37 15 -15 28 -24 28 -20 0 4 9 -5 19 -20 10 -16 21 -28 25
-28 18 3 29 0 23 -5 -3 -4 16 -28 43 -54 27 -26 46 -51 42 -55 -4 -4 -2 -5 4
-3 7 1 23 -9 37 -24 14 -16 23 -28 19 -29 -4 0 3 -4 16 -9 12 -5 22 -16 22
-25 0 -8 5 -15 11 -15 16 0 39 -26 39 -45 0 -9 4 -14 8 -11 5 3 16 -4 25 -15
12 -13 13 -19 4 -20 -6 0 -2 -4 11 -9 12 -5 22 -16 22 -25 0 -8 7 -15 16 -15
8 0 12 -4 9 -10 -3 -5 -1 -10 4 -10 6 0 11 -7 11 -16 0 -11 5 -14 16 -10 10 4
14 1 12 -6 -4 -11 2 -20 55 -77 12 -13 15 -20 7 -16 -8 4 -5 -2 8 -14 12 -12
20 -26 17 -31 -3 -6 1 -7 9 -4 10 4 16 -2 18 -18 2 -13 9 -22 16 -20 8 1 11
-2 7 -8 -6 -10 3 -25 45 -68 14 -14 19 -22 13 -18 -9 5 -11 2 -7 -8 3 -9 10
-13 15 -10 5 3 9 -2 9 -10 0 -9 4 -16 9 -16 5 0 13 -9 16 -20 4 -11 11 -18 16
-15 5 3 6 -2 2 -11 -5 -13 -3 -15 8 -9 8 4 11 4 6 0 -4 -5 1 -18 10 -29 17
-20 17 -20 -2 -6 -12 8 -9 2 8 -16 15 -17 27 -35 27 -42 0 -7 5 -12 10 -12 6
0 9 -6 8 -12 -2 -7 3 -12 10 -10 8 1 11 -2 6 -9 -4 -7 1 -18 12 -26 10 -8 18
-16 17 -18 -8 -14 -1 -25 10 -19 7 5 6 0 -3 -11 -8 -10 -10 -16 -4 -12 15 9
25 -16 14 -33 -12 -20 -52 -20 -74 -1 -11 9 -16 10 -12 4 4 -7 2 -13 -3 -13
-6 0 -11 4 -11 8 0 5 -16 7 -35 6 -20 -2 -33 1 -30 6 3 5 0 12 -6 16 -7 4 -9
3 -6 -3 4 -6 0 -13 -8 -17 -8 -3 -15 0 -15 6 0 7 -5 6 -15 -2 -11 -9 -15 -9
-15 -1 0 7 -5 9 -12 4 -19 -11 -39 -13 -32 -2 3 5 -2 9 -11 9 -10 0 -13 -5 -9
-12 6 -10 4 -10 -8 0 -12 9 -18 10 -23 2 -4 -6 -13 -9 -19 -7 -7 3 -13 0 -14
-6 -4 -32 -10 -62 -11 -62 -2 0 -4 -7 -6 -15 -8 -38 -11 -45 -20 -52 -6 -5 -6
-8 2 -8 7 0 10 -9 6 -22 -3 -13 -6 -31 -6 -41 -1 -11 -7 -15 -17 -12 -12 5
-12 4 -3 -6 10 -10 10 -16 0 -28 -10 -12 -9 -13 3 -6 13 8 13 7 1 -8 -11 -14
-11 -17 0 -17 12 0 12 -2 0 -9 -8 -5 -10 -14 -6 -22 6 -9 3 -11 -11 -6 -18 7
-18 6 -1 -7 17 -13 17 -14 0 -20 -15 -6 -15 -8 -3 -16 12 -8 12 -10 1 -10 -8
0 -11 -7 -8 -20 3 -13 0 -20 -10 -20 -12 0 -12 -2 1 -16 17 -17 21 -28 7 -20
-5 3 -12 -1 -15 -10 -3 -8 -2 -13 2 -10 5 3 9 -1 9 -9 0 -8 -5 -11 -10 -8 -6
4 -8 -3 -5 -15 5 -16 1 -22 -10 -23 -11 0 -13 -2 -4 -6 10 -4 10 -8 0 -21 -11
-13 -11 -14 2 -7 13 8 13 6 1 -8 -7 -9 -11 -23 -8 -31 3 -8 1 -16 -4 -18 -6
-2 -12 -16 -13 -30 -2 -16 1 -25 6 -22 6 4 4 -4 -3 -17 -7 -13 -13 -38 -13
-56 -1 -17 -4 -34 -8 -38 -4 -4 -4 -14 -1 -23 4 -10 2 -13 -5 -8 -9 5 -9 1 -2
-18 6 -17 6 -27 -2 -32 -7 -5 -8 -3 -3 6 5 9 4 11 -4 6 -9 -6 -9 -11 0 -22 7
-9 8 -14 1 -14 -11 0 -9 -31 4 -53 6 -9 5 -9 -7 0 -13 11 -15 9 -14 -10 1 -12
-3 -28 -9 -36 -9 -12 -8 -13 4 -6 12 7 13 6 4 -6 -12 -14 -12 -19 -16 -81 -2
-20 -7 -34 -12 -30 -5 3 -7 -2 -3 -10 3 -9 -1 -27 -8 -42 -10 -19 -11 -24 -2
-19 7 4 7 0 -2 -10 -11 -14 -11 -17 0 -17 12 0 12 -2 0 -9 -8 -5 -12 -19 -9
-35 3 -14 2 -23 -3 -21 -4 3 -10 1 -14 -5 -3 -5 -1 -10 6 -10 8 0 9 -3 0 -13
-6 -8 -8 -17 -4 -20 3 -4 2 -7 -4 -7 -5 0 -7 -14 -5 -31 3 -24 1 -30 -8 -24
-9 6 -9 3 -1 -13 7 -14 8 -23 1 -27 -6 -4 -8 -11 -5 -16 4 -5 0 -9 -7 -9 -9 0
-9 -3 2 -10 12 -7 12 -10 1 -10 -7 0 -11 -6 -7 -15 3 -8 0 -15 -7 -16 -9 0 -9
-2 0 -5 7 -3 9 -12 6 -20 -3 -7 -8 -12 -13 -9 -4 2 -6 -8 -4 -23 1 -14 -3 -33
-9 -41 -10 -12 -9 -13 2 -7 8 5 6 -2 -5 -20 -18 -28 -18 -29 0 -14 19 15 19
14 2 -17 -9 -18 -14 -33 -10 -33 4 0 2 -6 -2 -12 -5 -7 -9 -22 -9 -33 0 -11
-4 -23 -10 -27 -6 -5 -6 -8 2 -8 7 0 10 -7 7 -15 -4 -8 -11 -12 -16 -9 -6 4
-5 -2 1 -14 7 -14 8 -23 1 -27 -6 -4 -8 -11 -5 -16 4 -5 1 -9 -5 -9 -7 0 -8
-6 0 -19 7 -14 7 -22 -2 -27 -7 -5 -8 -3 -3 7 5 8 4 10 0 6 -11 -10 -16 -39
-6 -32 4 2 8 -3 8 -11 0 -8 -6 -13 -13 -10 -10 4 -11 -1 -4 -18 6 -17 4 -28
-8 -41 -9 -10 -12 -15 -6 -11 8 4 11 -3 10 -18 0 -13 -5 -22 -9 -19 -5 3 -7
-3 -5 -13 2 -11 -3 -25 -12 -32 -13 -12 -13 -13 5 -8 20 6 20 6 1 -9 -14 -11
-16 -15 -5 -15 10 -1 9 -4 -4 -11 -14 -8 -16 -14 -6 -25 8 -10 9 -14 0 -14 -9
0 -9 -5 0 -21 7 -13 7 -19 1 -15 -6 3 -13 2 -17 -4 -3 -5 -2 -10 4 -10 11 0 7
-30 -9 -59 -6 -12 -8 -21 -4 -21 3 0 0 -8 -7 -17 -8 -10 -9 -14 -2 -10 8 5 11
1 8 -14 -3 -13 -10 -26 -16 -30 -8 -5 -8 -8 1 -14 8 -5 6 -13 -7 -28 -12 -14
-13 -18 -3 -12 12 6 13 5 3 -5 -9 -10 -10 -17 -1 -27 8 -10 7 -12 -4 -8 -9 4
-15 0 -15 -9 0 -8 3 -13 6 -12 3 2 6 -6 6 -19 0 -18 -3 -21 -13 -12 -10 8 -12
7 -10 -4 2 -8 7 -17 13 -21 5 -4 2 -10 -8 -14 -9 -3 -17 -10 -17 -16 0 -5 3
-7 8 -5 4 3 7 -8 7 -23 1 -16 -3 -26 -9 -23 -5 4 -7 -3 -4 -15 4 -12 2 -25 -3
-28 -5 -3 -9 -15 -9 -28 0 -12 -6 -28 -12 -35 -11 -11 -10 -12 2 -6 13 8 13 7
1 -8 -9 -12 -10 -17 -2 -17 7 0 9 -5 6 -10 -4 -6 -11 -7 -17 -4 -6 4 -6 -2 1
-15 9 -16 9 -21 0 -21 -8 0 -8 -5 1 -16 11 -12 11 -15 0 -12 -7 2 -15 -3 -18
-11 -3 -10 0 -11 9 -5 12 7 12 5 0 -9 -11 -14 -11 -17 0 -17 12 0 12 -2 0 -9
-8 -5 -11 -16 -8 -26 5 -10 3 -14 -5 -9 -7 5 -9 0 -6 -14 4 -12 1 -22 -4 -22
-6 0 -4 -8 3 -17 8 -9 9 -14 3 -10 -7 4 -11 -5 -12 -25 0 -17 -7 -35 -14 -39
-11 -7 -10 -9 1 -9 10 0 11 -4 3 -12 -6 -7 -11 -16 -11 -20 -2 -17 -16 -8 -19
12 -2 11 -8 20 -13 20 -6 0 -7 4 -4 10 3 5 2 10 -3 10 -6 0 -8 10 -5 23 4 18
3 19 -6 7 -9 -12 -11 -11 -11 8 0 12 -5 22 -11 22 -8 0 -7 6 2 17 8 9 9 14 3
10 -7 -4 -18 1 -25 10 -11 13 -11 15 -1 9 11 -7 11 -4 1 12 -7 12 -18 18 -24
14 -5 -3 -5 1 2 9 10 12 8 17 -8 27 -10 7 -19 18 -18 25 0 9 2 9 6 0 2 -7 9
-13 14 -13 5 0 4 9 -3 19 -7 11 -16 17 -22 14 -5 -4 -7 1 -3 10 3 10 2 17 -3
17 -6 0 -10 7 -10 16 0 9 -5 12 -12 8 -7 -5 -9 -1 -6 12 3 11 0 25 -6 31 -24
26 -37 43 -31 43 6 0 -38 85 -63 120 -9 13 -11 21 -4 16 12 -7 16 4 13 33 -2
7 2 10 8 6 6 -3 9 0 5 8 -3 8 -1 18 5 21 6 4 8 13 4 22 -3 8 3 22 13 30 11 9
13 13 7 9 -8 -4 -13 0 -13 9 0 9 4 16 8 16 5 0 9 12 9 28 2 47 7 72 14 72 4 0
6 29 5 65 0 36 1 65 4 65 12 0 4 86 -10 98 -8 8 -9 11 -2 7 7 -4 12 0 12 9 0
9 -6 16 -12 16 -10 0 -10 2 0 9 11 6 10 10 -3 15 -10 3 -15 12 -11 21 3 8 2
14 -2 14 -20 -3 -33 2 -27 11 3 5 -1 10 -10 10 -9 0 -13 5 -10 10 3 6 -1 10
-9 10 -9 0 -16 8 -16 17 0 9 -3 14 -6 10 -7 -7 -34 17 -34 31 0 5 -8 16 -17
23 -14 12 -16 12 -9 -1 4 -8 1 -6 -8 5 -8 11 -20 25 -26 32 -5 7 -10 17 -10
23 0 6 -4 9 -9 5 -5 -3 -12 4 -16 15 -4 11 -11 18 -16 15 -5 -4 -9 1 -9 9 0 9
-5 16 -12 16 -6 0 -8 3 -5 7 4 3 -2 13 -14 21 -11 8 -18 20 -15 29 3 8 1 11
-4 8 -6 -3 -13 2 -17 12 -4 9 -17 27 -30 39 -18 16 -20 23 -10 34 10 10 9 12
-5 7 -18 -6 -41 15 -44 41 -2 8 -8 18 -14 22 -7 4 -10 10 -8 13 1 3 -7 17 -19
30 -12 14 -19 28 -16 31 4 3 0 6 -8 6 -11 0 -11 2 1 10 13 8 12 10 -2 10 -16
0 -20 6 -17 26 0 4 -4 10 -9 13 -5 3 -14 20 -19 36 -6 17 -16 29 -22 27 -7 -1
-10 7 -7 23 3 17 0 28 -10 32 -8 3 -14 11 -14 19 0 8 -5 14 -11 14 -5 0 -8 4
-4 9 3 5 -2 17 -11 25 -11 11 -12 16 -3 16 7 0 5 6 -6 13 -11 9 -15 19 -10 27
5 8 4 11 -2 7 -10 -6 -27 27 -24 46 1 4 -5 10 -13 13 -8 3 -12 12 -10 19 3 7
1 16 -5 19 -6 4 -8 13 -5 20 3 7 -2 19 -10 26 -9 7 -13 16 -10 21 3 5 0 9 -5
9 -6 0 -11 5 -11 11 0 5 5 7 11 4 6 -4 5 2 -3 14 -7 12 -17 21 -21 21 -5 0 -6
7 -3 16 3 8 2 12 -4 9 -6 -3 -10 -1 -10 5 0 6 -7 18 -15 27 -8 8 -13 19 -9 24
3 5 0 8 -8 7 -7 -2 -12 3 -10 11 2 8 -3 11 -11 8 -8 -3 -14 3 -14 16 -2 23
-22 39 -38 30 -5 -4 -7 -3 -3 1 4 5 -4 18 -17 31 -14 12 -22 25 -18 29 4 4 -1
4 -11 0 -12 -5 -17 -4 -13 3 6 9 -43 53 -59 53 -4 0 -22 11 -41 26 -18 14 -38
22 -45 18 -6 -4 -8 -3 -5 3 4 6 -7 16 -23 23 -17 7 -30 17 -30 22 0 5 -4 6
-10 3 -5 -3 -10 2 -11 12 0 10 -3 13 -5 7 -4 -9 -11 -9 -29 0 -14 6 -25 14
-25 19 0 4 -9 7 -20 7 -11 0 -20 5 -20 11 0 5 -4 7 -10 4 -5 -3 -10 -1 -10 5
0 7 -7 10 -15 6 -8 -3 -15 -1 -15 4 0 6 -9 10 -19 10 -11 0 -21 6 -23 12 -3 7
-15 13 -29 13 -15 0 -23 5 -21 13 1 8 -1 11 -6 8 -5 -3 -24 6 -42 19 -18 13
-38 22 -43 18 -6 -3 -7 -1 -3 5 4 7 2 12 -4 12 -6 0 -8 5 -4 13 5 7 2 7 -10
-2 -14 -12 -17 -12 -14 -1 2 8 -4 14 -12 15 -8 0 -14 8 -14 17 1 9 -4 15 -10
12 -13 -5 -25 3 -51 36 l-20 25 20 -15 c11 -8 -8 14 -42 48 -35 34 -63 70 -63
80 0 14 -2 15 -10 2 -8 -13 -10 -12 -10 3 0 9 1 19 3 20 1 2 -4 11 -12 20 -10
13 -10 17 -1 17 9 0 9 4 2 13 -7 8 -7 18 -2 27 5 8 5 21 -1 32 -7 13 -6 18 3
18 10 0 10 2 0 9 -8 4 -14 12 -14 16 0 4 6 12 14 16 7 5 8 9 2 9 -6 0 -11 7
-11 15 0 8 5 15 11 15 7 0 8 3 1 8 -6 4 -11 16 -11 27 0 11 5 23 11 27 6 5 6
8 0 8 -15 0 -16 160 -2 160 7 0 7 4 -2 9 -8 5 -11 16 -8 25 4 9 1 16 -6 16 -7
0 -8 3 -2 8 6 4 10 16 10 27 0 11 -4 23 -10 27 -6 5 -4 8 5 8 13 0 13 1 0 10
-8 5 -10 10 -5 10 6 0 9 24 8 56 -1 43 2 54 12 50 10 -3 12 0 8 11 -3 9 0 21
8 27 9 6 18 19 22 29 4 11 12 15 19 11 10 -6 10 -4 0 8 -11 14 -10 18 8 28 11
6 18 15 15 19 -3 5 2 12 11 15 8 3 13 10 10 15 -3 5 1 11 9 15 8 3 15 14 15
25 0 10 7 21 15 25 8 3 14 11 13 18 -2 7 2 12 8 11 6 -1 9 10 6 29 -3 21 -1
29 7 24 12 -8 10 28 -2 40 -4 4 -2 13 4 20 6 8 9 21 5 29 -3 8 0 15 7 16 9 0
9 2 0 6 -7 2 -13 9 -13 14 0 6 4 8 9 5 4 -3 6 13 4 35 -4 33 -2 40 8 33 10 -6
10 -3 -1 11 -12 14 -12 19 -2 23 10 3 10 7 1 19 -10 12 -10 17 2 25 11 7 11
11 1 15 -10 4 -10 10 2 28 12 17 13 26 4 31 -7 5 -8 3 -3 -6 6 -9 4 -11 -5 -5
-10 6 -9 11 5 22 14 10 15 13 4 14 -11 0 -11 2 0 6 11 5 11 7 0 14 -10 6 -11
9 -1 9 6 0 12 5 12 11 0 5 -6 7 -12 4 -7 -4 -5 0 4 8 10 8 15 16 12 19 -3 4 0
9 7 14 8 4 10 3 5 -4 -4 -7 -2 -12 3 -12 6 0 11 5 11 11 0 5 4 8 9 4 5 -3 16
4 24 15 7 11 17 17 20 13 6 -6 11 11 8 30 0 4 4 7 11 7 6 0 8 3 5 6 -3 4 4 15
17 25 13 11 23 28 22 41 -1 13 4 29 11 36 7 8 11 18 8 23 -4 5 -2 9 4 9 6 0 8
7 5 15 -4 8 -2 15 3 15 5 0 10 6 11 13 4 47 7 55 17 47 8 -7 10 -1 7 18 -2 18
2 33 12 41 12 10 13 17 6 26 -8 9 -8 15 0 20 7 4 7 13 -1 27 -6 11 -7 18 -2
15 5 -3 14 3 21 13 10 17 9 18 -6 13 -14 -6 -15 -4 -4 9 6 8 13 35 13 59 1 24
7 50 13 58 8 11 8 13 -1 7 -9 -5 -11 -2 -7 9 5 13 9 13 22 3 14 -11 15 -10 8
7 -6 18 -5 17 17 -3 17 -16 27 -20 32 -12z m-2669 -99 c21 17 48 4 36 -18 -7
-12 -5 -24 7 -42 13 -21 13 -24 1 -16 -13 8 -13 6 -2 -8 8 -9 11 -21 7 -27 -3
-5 -2 -10 3 -10 6 0 10 -6 9 -12 -1 -47 4 -69 16 -62 7 5 6 0 -3 -11 -9 -11
-10 -16 -2 -11 8 5 12 0 12 -13 0 -31 2 -35 19 -48 10 -8 11 -12 4 -13 -14 0
-6 -28 14 -48 7 -8 11 -18 8 -23 -4 -5 -1 -9 5 -9 6 0 8 -4 5 -10 -3 -5 2 -10
12 -11 16 0 16 -1 -2 -9 -16 -7 -16 -9 -4 -9 9 -1 20 -12 23 -26 4 -16 11 -23
18 -19 6 4 8 3 4 -4 -3 -6 0 -17 8 -25 8 -8 13 -16 11 -19 -2 -2 6 -5 18 -5
12 -1 23 -7 25 -12 3 -8 10 -8 23 -1 15 9 17 8 12 -6 -4 -11 -2 -15 4 -11 6 4
9 -12 9 -43 -1 -28 2 -50 5 -50 4 0 4 -13 -1 -29 -6 -22 -4 -33 6 -42 10 -8
11 -16 3 -30 -7 -14 -6 -19 3 -19 9 0 9 -3 -2 -10 -12 -8 -12 -10 -1 -10 11 0
11 -3 0 -17 -12 -14 -12 -16 0 -8 11 6 13 4 8 -8 -4 -10 -1 -17 6 -17 7 0 8
-3 2 -8 -17 -12 -14 -42 4 -42 12 0 13 -2 3 -9 -17 -10 -17 -22 -1 -32 10 -6
10 -11 -2 -25 -12 -15 -12 -17 0 -9 11 6 13 4 8 -8 -3 -10 -2 -17 3 -17 5 0 7
-7 4 -15 -4 -9 3 -24 16 -35 13 -12 17 -20 10 -20 -8 0 -4 -8 9 -19 16 -14 18
-21 9 -24 -8 -4 -7 -6 5 -6 16 -1 22 -13 18 -35 -1 -5 6 -6 15 -2 14 6 15 4 4
-9 -7 -9 -9 -15 -4 -14 5 1 15 1 23 0 11 -1 11 -4 1 -17 -11 -12 -11 -15 1
-12 8 2 13 -2 12 -9 -2 -8 4 -10 14 -6 11 4 14 3 9 -5 -4 -7 -2 -12 4 -12 6 0
9 -4 5 -9 -3 -5 -1 -12 4 -16 6 -3 8 -12 5 -19 -3 -8 -1 -17 5 -21 8 -4 8 -12
0 -27 -9 -16 -8 -23 2 -29 10 -6 11 -9 2 -9 -7 0 -12 -11 -11 -25 1 -14 6 -25
11 -25 5 0 4 -7 -3 -15 -10 -12 -10 -18 0 -30 10 -12 10 -15 0 -15 -10 0 -10
-3 0 -15 10 -12 10 -15 0 -15 -10 0 -10 -3 0 -15 10 -12 10 -15 -1 -15 -10 0
-10 -3 -1 -12 8 -8 9 -15 1 -25 -8 -9 -8 -13 0 -13 13 0 10 -22 -4 -32 -6 -5
-5 -8 4 -8 10 0 11 -3 2 -14 -8 -10 -9 -16 -1 -21 7 -4 7 -12 0 -24 -5 -10 -6
-22 -2 -26 12 -11 10 -95 -2 -95 -6 0 -5 -4 2 -9 11 -6 10 -10 -5 -15 -10 -4
-19 -6 -20 -4 -1 2 -9 -6 -18 -17 -9 -11 -14 -14 -10 -7 9 17 -1 15 -32 -5
-21 -14 -25 -15 -18 -3 8 13 6 13 -8 2 -9 -8 -20 -11 -25 -8 -6 3 -15 -1 -22
-9 -7 -8 -16 -12 -21 -9 -5 3 -9 1 -9 -4 0 -6 -7 -13 -16 -16 -8 -3 -13 -2
-10 2 3 5 -10 4 -29 -2 -18 -6 -31 -15 -28 -20 4 -5 -1 -7 -10 -3 -10 4 -17 1
-17 -6 0 -8 -4 -6 -10 3 -6 9 -10 10 -10 3 0 -6 -9 -10 -19 -8 -11 2 -22 -3
-25 -12 -5 -12 -9 -13 -21 -3 -8 7 -15 8 -15 3 0 -5 -10 -9 -22 -8 -13 1 -27
0 -33 -4 -5 -3 -23 -6 -40 -7 -16 -1 -31 -2 -32 -3 -2 -1 -5 0 -6 2 -2 1 -11
-4 -20 -12 -10 -7 -17 -9 -17 -4 0 5 -9 9 -19 9 -11 0 -17 -4 -15 -8 3 -4 -2
-9 -10 -9 -9 -1 -24 -2 -33 -3 -10 -1 -24 -5 -30 -9 -8 -5 -13 -4 -13 2 0 7
-8 7 -25 1 -19 -7 -27 -6 -34 8 -6 9 -11 12 -11 5 0 -6 -8 -10 -17 -8 -10 1
-24 -3 -32 -9 -12 -9 -13 -8 -6 4 7 12 6 13 -6 3 -23 -18 -25 -19 -43 -4 -14
12 -16 12 -11 0 4 -10 -3 -14 -22 -15 -73 -4 -93 -8 -93 -18 0 -6 -4 -6 -12 2
-8 8 -15 8 -24 1 -7 -6 -31 -11 -53 -12 -23 -1 -41 -5 -41 -9 0 -4 -6 -5 -14
-2 -8 3 -24 0 -36 -6 -18 -10 -21 -10 -14 2 6 10 5 11 -7 2 -8 -6 -30 -14 -49
-17 -19 -3 -48 -9 -65 -13 -16 -3 -34 -7 -40 -8 -5 -1 -16 -5 -22 -9 -8 -5
-13 -3 -14 5 0 10 -2 10 -6 0 -2 -6 -9 -10 -14 -6 -5 3 -9 1 -9 -4 0 -5 -13
-8 -30 -7 -16 1 -30 -2 -30 -7 0 -4 -10 -8 -23 -8 -13 0 -29 -6 -36 -12 -11
-11 -12 -10 -6 2 7 12 6 13 -7 3 -8 -7 -18 -10 -21 -6 -4 3 -7 1 -7 -6 0 -7
-3 -10 -8 -8 -4 3 -24 -3 -45 -13 -20 -10 -34 -13 -30 -7 7 12 -19 -6 -45 -31
-8 -7 -19 -9 -25 -5 -7 3 -9 3 -5 -1 7 -9 -39 -56 -55 -56 -5 0 -7 -7 -3 -15
3 -8 0 -14 -7 -12 -7 1 -11 -3 -10 -10 1 -6 -4 -14 -13 -17 -10 -4 -13 -2 -8
6 4 7 3 8 -4 4 -7 -4 -12 -11 -12 -16 0 -5 -16 -26 -36 -47 -20 -20 -43 -47
-51 -60 -8 -12 -20 -20 -26 -16 -5 3 -7 1 -4 -4 4 -6 0 -16 -8 -23 -8 -7 -13
-16 -10 -20 3 -5 -4 -11 -15 -15 -11 -4 -18 -11 -15 -16 4 -5 -1 -12 -9 -15
-9 -3 -14 -10 -11 -14 3 -4 -2 -11 -11 -14 -8 -3 -13 -10 -10 -15 3 -5 -1 -12
-10 -15 -9 -4 -14 -9 -11 -13 4 -3 -3 -14 -15 -24 -11 -11 -17 -19 -13 -19 5
0 0 -7 -11 -16 -10 -8 -13 -12 -6 -9 11 6 12 3 3 -14 -7 -11 -16 -21 -22 -21
-6 0 -7 -5 -4 -10 3 -5 1 -10 -4 -10 -6 0 -11 -7 -11 -15 0 -8 -4 -15 -10 -15
-5 0 -10 -7 -10 -15 0 -8 -5 -15 -10 -15 -6 0 -9 -6 -8 -12 2 -7 -3 -12 -10
-10 -8 1 -11 -2 -7 -8 4 -6 1 -17 -5 -26 -17 -20 -49 -75 -56 -96 -4 -10 -10
-18 -15 -18 -5 0 -9 -7 -9 -16 0 -9 -9 -27 -20 -41 -11 -14 -20 -32 -20 -39 0
-8 -4 -14 -10 -14 -5 0 -10 -7 -10 -15 0 -8 -5 -15 -11 -15 -6 0 -8 -7 -5 -16
3 -8 2 -12 -4 -9 -9 6 -14 -8 -11 -27 0 -5 -4 -8 -10 -8 -6 0 -8 -7 -5 -16 3
-8 2 -12 -4 -9 -6 3 -10 1 -10 -5 0 -6 -5 -8 -12 -4 -9 5 -9 2 1 -9 12 -15 11
-17 -3 -17 -10 0 -15 -4 -12 -8 6 -10 -45 -58 -56 -54 -4 1 -5 -5 -2 -12 3 -9
-3 -17 -16 -21 -12 -4 -26 -18 -32 -31 -6 -13 -18 -24 -25 -24 -8 0 -11 -4 -8
-10 3 -5 -1 -10 -10 -10 -9 0 -14 -3 -12 -7 6 -10 -19 -34 -27 -26 -3 4 -6 1
-6 -6 0 -17 -26 -42 -34 -33 -4 3 -4 -2 0 -12 5 -14 4 -17 -4 -12 -7 4 -12 2
-12 -4 0 -6 -5 -8 -10 -5 -6 4 -9 1 -8 -7 2 -7 -3 -12 -10 -10 -8 1 -10 -2 -7
-8 8 -12 -40 -61 -50 -52 -3 4 -3 -2 1 -12 5 -14 4 -17 -4 -12 -11 6 -16 -5
-13 -26 0 -4 -5 -5 -13 -2 -8 3 -17 0 -22 -7 -5 -8 -3 -10 7 -4 12 7 -14 -29
-32 -45 -3 -3 -8 -13 -12 -23 -4 -10 -11 -16 -16 -12 -6 3 -8 -4 -6 -15 2 -11
-4 -27 -13 -36 -17 -18 -26 -48 -11 -38 8 5 13 -9 10 -28 0 -5 4 -8 9 -8 6 0
10 -6 10 -14 0 -7 10 -21 22 -30 13 -9 17 -14 10 -10 -11 5 -11 2 -1 -14 7
-12 17 -18 21 -16 4 3 8 -2 8 -10 0 -8 9 -18 20 -21 11 -4 18 -11 15 -16 -4
-5 1 -12 10 -15 13 -5 13 -9 3 -22 -11 -13 -11 -15 2 -8 9 4 8 2 -2 -7 -10 -8
-14 -18 -10 -23 4 -4 0 -3 -10 4 -12 10 -18 10 -24 1 -4 -8 -3 -9 4 -5 7 4 12
2 12 -4 0 -6 -7 -13 -15 -16 -8 -4 -12 -10 -9 -15 3 -5 -2 -12 -10 -15 -8 -3
-18 -15 -22 -26 -3 -12 -11 -17 -20 -14 -8 3 -13 2 -10 -2 7 -12 -50 -76 -61
-69 -5 3 -10 0 -10 -8 0 -8 5 -12 11 -9 6 3 3 -1 -8 -10 -11 -9 -15 -20 -10
-28 5 -9 2 -8 -11 2 -11 9 -16 10 -11 3 10 -18 -5 -38 -30 -39 -16 -1 -21 4
-20 20 1 12 6 24 11 28 6 5 3 8 -6 8 -12 0 -14 8 -11 31 3 22 1 30 -7 25 -7
-5 -9 -1 -5 8 3 9 11 13 18 9 6 -4 3 6 -8 21 -11 17 -13 25 -5 20 12 -6 12 -5
0 9 -11 14 -11 17 0 17 10 0 10 3 1 12 -14 14 -16 32 -2 23 6 -3 7 1 4 9 -3 9
-11 13 -18 10 -6 -3 -2 2 8 10 17 14 16 19 -4 18 -3 0 -6 17 -6 39 -1 34 1 37
15 26 8 -6 5 3 -8 21 -20 29 -21 33 -6 39 16 5 16 7 1 15 -9 5 -13 14 -9 21
10 17 11 47 1 47 -5 0 -6 6 -1 13 11 18 12 37 2 37 -6 0 -7 6 -2 13 11 17 10
41 -2 49 -6 5 -6 8 1 8 7 0 10 14 7 36 -2 21 0 33 6 30 5 -3 7 3 4 14 -3 11
-9 18 -12 15 -4 -2 -8 2 -8 10 0 8 3 14 6 13 19 -2 24 4 11 13 -12 8 -12 12
-2 16 10 4 10 8 1 19 -9 11 -8 14 5 14 16 0 16 2 2 15 -17 17 -11 49 8 38 6
-3 6 -1 -1 8 -7 7 -13 17 -13 22 0 4 6 5 13 1 8 -5 8 -2 -2 9 -11 14 -11 17 0
18 12 0 12 1 0 6 -11 5 -11 7 0 14 11 7 11 9 1 9 -10 0 -10 5 -1 21 9 17 8 23
-2 30 -12 7 -12 9 0 9 7 0 11 6 7 15 -3 8 0 15 6 15 7 0 6 5 -2 15 -10 12 -9
15 6 15 16 0 16 2 4 9 -8 6 -18 7 -24 4 -5 -3 -6 -1 -2 6 4 6 11 9 15 6 8 -4
9 2 14 73 1 17 6 32 11 32 5 0 2 8 -5 17 -10 12 -11 15 -1 9 9 -6 11 -1 8 18
-3 14 0 26 5 26 5 0 9 7 9 16 0 9 -5 13 -12 9 -7 -4 -4 1 6 9 15 12 16 16 5
16 -10 1 -9 3 4 11 13 8 15 14 7 29 -7 13 -7 21 1 26 6 3 9 17 6 30 -2 13 0
24 5 24 6 0 8 7 5 15 -4 8 -1 17 5 21 7 4 6 9 -3 15 -10 6 -11 9 -1 9 6 0 12
7 12 16 0 9 5 12 13 8 9 -6 9 -4 -1 8 -9 12 -10 18 -2 23 6 4 9 13 6 20 -3 8
-1 15 4 17 5 2 11 20 12 40 2 21 8 38 13 38 6 0 3 5 -5 10 -10 6 -11 10 -2 10
6 0 12 9 12 21 0 11 4 18 9 15 4 -3 7 6 5 19 -1 14 2 27 7 31 5 3 7 10 4 15
-4 5 -2 9 4 9 6 0 8 7 5 15 -4 8 -1 15 6 15 7 0 10 8 7 20 -3 11 -1 20 5 20 5
0 6 4 3 10 -3 6 -1 10 5 10 6 0 8 5 5 10 -3 6 -1 10 5 10 6 0 8 5 5 10 -4 6
-1 17 5 25 6 8 9 18 6 24 -3 5 2 12 11 15 15 6 15 8 3 16 -10 7 -11 10 -2 10
6 0 12 7 12 16 0 9 8 23 17 30 17 13 17 14 -2 8 -19 -5 -19 -5 -3 9 10 8 15
17 11 20 -3 4 -1 7 5 7 7 0 11 3 11 8 -2 10 4 34 16 70 4 12 11 22 15 22 4 0
10 14 14 31 3 17 10 28 16 24 5 -3 7 0 4 8 -3 8 1 21 9 28 7 8 12 20 9 27 -2
6 1 12 7 12 6 0 11 7 11 15 0 8 4 15 9 15 6 0 8 9 6 21 -3 15 0 19 11 15 9 -3
12 -1 9 4 -3 6 -1 10 6 10 8 0 7 5 -2 17 -10 11 -10 14 -1 9 10 -6 17 5 10 19
-2 2 6 11 17 20 11 9 13 14 5 10 -9 -4 -7 0 4 9 10 8 15 20 11 25 -3 6 1 14
10 17 9 4 14 13 11 21 -3 8 -1 11 4 8 5 -3 12 6 16 20 3 13 9 23 14 20 4 -2
13 14 20 35 7 22 17 40 21 40 5 0 17 18 27 40 10 22 21 37 25 34 4 -4 7 0 7 9
0 10 5 17 11 17 5 0 7 5 4 10 -3 6 -1 10 5 10 6 0 9 4 5 9 -3 5 4 13 16 16 17
6 19 9 8 16 -8 5 -9 9 -4 9 6 0 23 20 38 45 16 25 34 42 39 38 6 -3 8 -1 5 4
-4 6 4 22 18 37 13 15 26 30 27 34 2 4 7 6 11 4 5 -1 6 2 3 7 -4 5 4 20 16 32
13 12 16 18 8 14 -8 -4 0 5 18 22 17 16 32 34 32 40 0 6 11 18 25 27 14 9 24
22 22 29 -1 6 4 11 11 9 11 -2 16 10 13 31 0 4 6 7 14 7 8 0 15 7 15 16 0 8 5
12 10 9 6 -3 10 -2 10 4 0 13 123 137 132 133 5 -1 7 4 5 11 -1 6 5 11 13 9 8
-2 12 -1 8 3 -4 4 5 18 20 32 15 14 27 30 27 36 0 7 5 12 10 12 6 0 25 14 42
30 66 62 98 89 101 85 2 -3 10 6 17 20 8 14 14 22 15 18 0 -8 26 12 71 54 16
15 29 25 29 23 0 -2 11 6 24 18 38 35 56 48 56 42 0 -3 11 5 23 19 13 14 27
23 30 19 4 -3 7 0 7 7 0 7 3 11 6 7 6 -6 33 14 71 53 19 20 22 21 17 6 -5 -13
4 -8 24 14 18 18 32 29 32 25 0 -5 7 0 16 11 8 10 13 12 9 4 -4 -9 0 -7 9 4 8
10 20 15 26 11 6 -3 9 -2 8 3 -2 6 1 10 6 10 5 0 12 4 15 9 10 13 65 48 74 45
4 -1 7 3 7 9 0 5 5 7 10 4 6 -3 10 -1 10 4 0 6 7 11 16 11 8 0 13 4 10 8 -3 5
0 9 7 9 22 1 146 71 139 79 -4 4 -2 4 4 1 6 -3 24 2 40 12 16 10 37 17 46 15
10 -1 16 3 15 9 -1 7 4 11 11 10 6 -2 12 2 12 8 0 5 5 7 10 4 6 -3 10 -1 10 5
0 6 4 9 9 5 5 -3 12 -1 16 5 3 5 15 10 26 10 10 0 19 5 19 10 0 6 7 10 15 10
8 0 15 6 15 13 0 8 3 7 10 -3 8 -12 10 -12 16 3 5 15 9 15 22 5 12 -10 14 -10
8 0 -4 7 -2 12 7 12 8 0 21 7 28 16 9 11 15 12 17 5 3 -9 7 -9 18 0z m2474
-385 c0 -3 -4 -8 -10 -11 -5 -3 -10 -1 -10 4 0 6 5 11 10 11 6 0 10 -2 10 -4z
m2060 -2096 c0 -5 -5 -10 -11 -10 -5 0 -7 5 -4 10 3 6 8 10 11 10 2 0 4 -4 4
-10z m-7480 -1860 c0 -5 -4 -10 -10 -10 -5 0 -10 5 -10 10 0 6 5 10 10 10 6 0
10 -4 10 -10z m8525 -1160 c-3 -5 -12 -10 -18 -10 -7 0 -6 4 3 10 19 12 23 12
15 0z m-7385 -1054 c0 -11 -19 -15 -25 -6 -3 5 1 10 9 10 9 0 16 -2 16 -4z
m4757 -12 c-3 -3 -12 -4 -19 -1 -8 3 -5 6 6 6 11 1 17 -2 13 -5z"/>
<path d="M7180 2380 c-9 -6 -10 -10 -3 -10 6 0 15 5 18 10 8 12 4 12 -15 0z"/>
<path d="M6787 2149 c7 -7 15 -10 18 -7 3 3 -2 9 -12 12 -14 6 -15 5 -6 -5z"/>
<path d="M508 2313 c7 -3 16 -2 19 1 4 3 -2 6 -13 5 -11 0 -14 -3 -6 -6z"/>
<path d="M8685 1360 c-3 -5 -1 -10 4 -10 6 0 11 5 11 10 0 6 -2 10 -4 10 -3 0
-8 -4 -11 -10z"/>
</g>
</svg>
